<svg xmlns="http://www.w3.org/2000/svg" width="46.567" height="46.578" viewBox="0 0 46.567 46.578"><defs><style>.a{opacity:0.3;}.b{fill:#00225c;}</style></defs><g class="a" transform="translate(0 0)"><path class="b" d="M276.319,180.284A.967.967,0,1,0,277,180,.974.974,0,0,0,276.319,180.284Zm0,0" transform="translate(-251.033 -163.667)"/><path class="b" d="M75.342,109.5a.967.967,0,1,0,.684.283A.976.976,0,0,0,75.342,109.5Zm0,0" transform="translate(-67.23 -99.564)"/><path class="b" d="M44.173,17.418a4.486,4.486,0,0,0-3.953.406l-1.28.809a8.253,8.253,0,0,0-5.677-2.257H30.114a.91.91,0,0,0,0,1.819h3.149a6.463,6.463,0,0,1,6.171,8.386l-.208.668a6.592,6.592,0,0,0,.166,4.377,4.723,4.723,0,0,1,.335,1.752V44.758H37.2l.543-.774a.91.91,0,0,0,.165-.522V37.034a.91.91,0,0,0-.541-.832,13.819,13.819,0,0,1-6.658-6.287l-.019-.037a.91.91,0,0,0-1.618.832l.02.037q.209.407.442.8H23.653a3.493,3.493,0,0,0,.093-.8v-12.3a3.556,3.556,0,0,0-1.325-2.769L36.547,1.553A.91.91,0,1,0,35.26.266L20.613,14.913a3.549,3.549,0,0,0-.429-.027,1.888,1.888,0,0,0-.537.079l-.018-.017a4.7,4.7,0,0,1-1.087-1.814L16.505,6.806A2.624,2.624,0,0,0,14,4.981H10.665a2.643,2.643,0,0,0-1.626.562L5.206,8.551H3.021A2.519,2.519,0,0,0,.615,11.818l.622,2a3.617,3.617,0,0,0,3.47,2.556H7.194l1.556,2.857a7.648,7.648,0,0,1,.85,2.537,2.178,2.178,0,0,0-.711,1.611v1.092a2.179,2.179,0,0,0,.821,1.7,9.549,9.549,0,0,0,1.725,4.15L12.662,32V42.552l-.915,1.261a1.742,1.742,0,0,0,1.41,2.764h4.054a.91.91,0,0,0,.91-.91v-5.54A12.931,12.931,0,0,1,19.6,34.122a1.965,1.965,0,0,0,.66.114,3.473,3.473,0,0,0,2.3-.87h8.231a15.657,15.657,0,0,0,5.3,4.247v5.563l-.4.57a1.8,1.8,0,0,0,1.474,2.833h3.474a.91.91,0,0,0,.91-.91V33.377a6.546,6.546,0,0,0-.463-2.423,4.766,4.766,0,0,1-.12-3.165l.208-.669a8.272,8.272,0,0,0,.322-3.4,1.716,1.716,0,0,1,.63,1.329v4.16a8.478,8.478,0,0,0,3.5,6.851.91.91,0,0,0,1.443-.737V21.6a4.484,4.484,0,0,0-2.894-4.178ZM11.35,21.2c-.009-.048-.018-.1-.027-.143l6.07-6.07a6.516,6.516,0,0,0,.929,1.227l.043.043a1.9,1.9,0,0,0-.076.529V21.2ZM14.774,7.364l.7,2.184-1.659,2a.782.782,0,0,1-1.384-.5V6.8H14a.811.811,0,0,1,.774.564ZM8.533,15.03a.91.91,0,0,0-.8-.475H4.707a1.806,1.806,0,0,1-1.733-1.276l-.622-2a.7.7,0,0,1,.668-.907h2.5a.91.91,0,0,0,.562-.194l4.08-3.2a.816.816,0,0,1,.452-.171v4.242a2.6,2.6,0,0,0,4.6,1.663l.92-1.107.5,1.562L10.707,19.1q-.164-.373-.36-.734Zm7.768,25.1v4.63H13.309l1-1.377a.911.911,0,0,0,.173-.534V31.7a.909.909,0,0,0-.176-.538l-1.4-1.915a7.716,7.716,0,0,1-1.236-2.6h6.621v5.61a1.968,1.968,0,0,0,.041.4A14.746,14.746,0,0,0,16.3,40.128Zm3.806-7.863V25.745a.91.91,0,0,0-.91-.91H11.071a.364.364,0,0,1-.364-.364V23.38a.364.364,0,0,1,.364-.364H19.2a.91.91,0,0,0,.91-.91V16.785a.98.98,0,0,0,.085-.079,1.743,1.743,0,0,1,1.735,1.741v12.3a1.67,1.67,0,0,1-1.668,1.668.153.153,0,0,1-.152-.152Zm25.139.9a6.651,6.651,0,0,1-1.3-3.948v-4.16a3.544,3.544,0,0,0-3-3.5,8.3,8.3,0,0,0-.812-1.524l1.061-.671A2.642,2.642,0,0,1,45.247,21.6Zm0,0" transform="translate(-0.499 0)"/></g></svg>