<svg xmlns="http://www.w3.org/2000/svg" width="46.567" height="46.565" viewBox="0 0 46.567 46.565"><defs><style>.a{opacity:0.3;isolation:isolate;}.b{fill:#00225c;}</style></defs><g class="a" transform="translate(0 0)"><g transform="translate(0 0)"><path class="b" d="M45.365,20.3,26.177,1.2a4.092,4.092,0,0,0-5.785,0L1.2,20.3a4.093,4.093,0,0,0,4.586,6.621L8.2,45.38a1.364,1.364,0,0,0,1.353,1.187H37.017a1.364,1.364,0,0,0,1.353-1.187l2.412-18.459A4.093,4.093,0,0,0,45.365,20.3ZM10.748,43.839l-.357-2.728h5.465l.337,2.728ZM29.1,31.149l-1.566,12.69H18.942L17.376,31.147a5.931,5.931,0,0,1,5.907-6.589A5.864,5.864,0,0,1,29.1,31.149Zm6.719,12.69H30.283l.337-2.728h5.556Zm.713-5.457H30.956l.851-6.9a8.63,8.63,0,1,0-17.139,0l.851,6.9H10.035L8.263,24.819,23.284,9.877,38.3,24.819Zm6.906-14.224a1.362,1.362,0,0,1-1.931,0L24.246,6.986a1.364,1.364,0,0,0-1.924,0L5.058,24.158a1.364,1.364,0,0,1-1.931-1.927L22.319,3.13a1.363,1.363,0,0,1,1.931,0l19.188,19.1A1.366,1.366,0,0,1,43.438,24.158Z" transform="translate(0 -0.002)"/></g><g transform="translate(21.919 16.371)"><circle class="b" cx="1.364" cy="1.364" r="1.364"/></g></g></svg>