<svg xmlns="http://www.w3.org/2000/svg" width="40.359" height="46.567" viewBox="0 0 40.359 46.567"><defs><style>.a{opacity:0.3;isolation:isolate;}.b{fill:#00225c;}</style></defs><g class="a"><g transform="translate(0 0)"><path class="b" d="M49.57,24.424V19.768A2.328,2.328,0,0,1,51.9,17.439a2.328,2.328,0,1,0,0-4.657,6.993,6.993,0,0,0-6.985,6.985v4.657a2.331,2.331,0,0,1-2.328,2.328v-3.1A11.641,11.641,0,0,0,30.941,12.006H29.022c.755-2.318.273-4.908-.4-7.4a1.261,1.261,0,0,0-2.043-.858.673.673,0,0,0-.052.045l-2.092,2h-1.7l-2.092-2c-.017-.016-.034-.031-.052-.045a1.261,1.261,0,0,0-2.045.876c-.739,3.2-1.334,6.523-.007,9.125-.027,4.278,1.025,7.169,3.21,8.819l1.192,4.2a2.332,2.332,0,0,0-2.081,2.315v.776a6.993,6.993,0,0,0-6.985,6.985V44.6a.776.776,0,0,0,.776.776H16.2v3.881a.776.776,0,0,0,.776.776h4.657a.776.776,0,0,0,.761-.624L23.2,45.38h18.6l.807,4.033a.776.776,0,0,0,.761.624h4.657a.776.776,0,0,0,.776-.776V45.38h1.552a.776.776,0,0,0,.776-.776V36.843a7,7,0,0,0-4.686-6.595A6.983,6.983,0,0,0,49.57,24.424Zm-3.1,0V19.768A5.439,5.439,0,0,1,51.9,14.335a.776.776,0,1,1,0,1.552,3.88,3.88,0,0,0-3.881,3.882v4.656a5.439,5.439,0,0,1-5.433,5.433h-.978a4.262,4.262,0,0,0,.816-1.552h.163A3.885,3.885,0,0,0,46.465,24.424ZM22.4,29.081a.777.777,0,0,1,.776-.776h.776a.776.776,0,0,0,.747-.988l-1.542-5.433a.777.777,0,0,0-.306-.427c-1.919-1.326-2.825-3.906-2.77-7.888a.775.775,0,0,0-.1-.387c-1.041-1.882-.793-4.42-.015-7.874l1.9,1.825a.776.776,0,0,0,.537.216h2.328a.776.776,0,0,0,.537-.216L27.2,5.3c.663,2.512,1.071,5.083-.031,7.115a.776.776,0,0,0,.682,1.146h3.094A10.089,10.089,0,0,1,41.032,23.65v3.491a2.72,2.72,0,0,1-2.717,2.717H27.838V21.32a.776.776,0,1,0-1.552,0v8.538H22.4Zm-1.412,19.4H17.748v-3.1h3.865Zm26.249,0H44l-.621-3.1h3.865ZM15.419,43.828V37.619H49.57v6.209ZM44.137,31.41a5.441,5.441,0,0,1,5.377,4.657H15.476a5.441,5.441,0,0,1,5.377-4.657Z" transform="translate(-13.867 -3.47)"/><circle class="b" cx="0.776" cy="0.776" r="0.776" transform="translate(6.985 6.208)"/><circle class="b" cx="0.776" cy="0.776" r="0.776" transform="translate(10.866 6.208)"/></g></g></svg>