<svg xmlns="http://www.w3.org/2000/svg" width="37.654" height="37.654" viewBox="0 0 37.654 37.654"><defs><style>.a{fill:#b1bbcd;}</style></defs><g transform="translate(0)"><path class="a" d="M38.116,7.365H34.979V6.11a2.51,2.51,0,1,0-5.021,0V7.365H24.937V6.11a2.51,2.51,0,1,0-5.021,0V7.365H14.9V6.11a2.51,2.51,0,0,0-5.021,0V7.365H6.738A3.138,3.138,0,0,0,3.6,10.5v25.1a3.138,3.138,0,0,0,3.138,3.138H24.31a.628.628,0,1,0,0-1.255H6.738a1.888,1.888,0,0,1-1.883-1.883V16.151H40V26.82a.628.628,0,1,0,1.255,0V10.5a3.138,3.138,0,0,0-3.138-3.138Zm-6.9-1.255a1.255,1.255,0,0,1,2.51,0V9.876a1.255,1.255,0,0,1-2.51,0Zm-10.041,0a1.255,1.255,0,1,1,2.51,0V9.876a1.255,1.255,0,1,1-2.51,0Zm-10.041,0a1.255,1.255,0,0,1,2.51,0V9.876a1.255,1.255,0,1,1-2.51,0ZM40,14.9H4.855V10.5A1.888,1.888,0,0,1,6.738,8.621H9.876V9.876a2.51,2.51,0,1,0,5.021,0V8.621h5.021V9.876a2.51,2.51,0,1,0,5.021,0V8.621h5.021V9.876a2.51,2.51,0,1,0,5.021,0V8.621h3.138A1.888,1.888,0,0,1,40,10.5Z" transform="translate(-3.6 -3.6)"/><path class="a" d="M44.621,49.855A1.255,1.255,0,0,0,43.365,48.6h-2.51A1.255,1.255,0,0,0,39.6,49.855v1.883a1.255,1.255,0,0,0,1.255,1.255h2.51a1.255,1.255,0,0,0,1.255-1.255Zm-3.765,1.883V49.855h2.51v1.883Z" transform="translate(-27.049 -32.911)"/><path class="a" d="M23.021,49.855A1.255,1.255,0,0,0,21.765,48.6h-2.51A1.255,1.255,0,0,0,18,49.855v1.883a1.255,1.255,0,0,0,1.255,1.255h2.51a1.255,1.255,0,0,0,1.255-1.255Zm-3.765,1.883V49.855h2.51v1.883Z" transform="translate(-12.979 -32.911)"/><path class="a" d="M86.565,52.993a1.255,1.255,0,0,0,1.255-1.255V49.855A1.255,1.255,0,0,0,86.565,48.6h-2.51A1.255,1.255,0,0,0,82.8,49.855v1.883a1.255,1.255,0,0,0,1.255,1.255Zm-2.51-3.138h2.51v1.883h-2.51Z" transform="translate(-55.187 -32.911)"/><path class="a" d="M44.621,66.055A1.255,1.255,0,0,0,43.365,64.8h-2.51A1.255,1.255,0,0,0,39.6,66.055v1.883a1.255,1.255,0,0,0,1.255,1.255h2.51a1.255,1.255,0,0,0,1.255-1.255Zm-3.765,1.883V66.055h2.51v1.883Z" transform="translate(-27.049 -43.463)"/><path class="a" d="M23.021,66.055A1.255,1.255,0,0,0,21.765,64.8h-2.51A1.255,1.255,0,0,0,18,66.055v1.883a1.255,1.255,0,0,0,1.255,1.255h2.51a1.255,1.255,0,0,0,1.255-1.255Zm-3.765,1.883V66.055h2.51v1.883Z" transform="translate(-12.979 -43.463)"/><path class="a" d="M43.365,81h-2.51A1.255,1.255,0,0,0,39.6,82.255v1.883a1.255,1.255,0,0,0,1.255,1.255h2.51a1.255,1.255,0,0,0,1.255-1.255V82.255A1.255,1.255,0,0,0,43.365,81Zm-2.51,3.138V82.255h2.51v1.883Z" transform="translate(-27.049 -54.014)"/><path class="a" d="M62.455,52.993h2.51a1.255,1.255,0,0,0,1.255-1.255V49.855A1.255,1.255,0,0,0,64.965,48.6h-2.51A1.255,1.255,0,0,0,61.2,49.855v1.883A1.255,1.255,0,0,0,62.455,52.993Zm0-3.138h2.51v1.883h-2.51Z" transform="translate(-41.118 -32.911)"/><path class="a" d="M61.2,67.938a1.255,1.255,0,0,0,1.255,1.255.628.628,0,0,0,0-1.255V66.055h2.51a.628.628,0,0,0,0-1.255h-2.51A1.255,1.255,0,0,0,61.2,66.055Z" transform="translate(-41.118 -43.463)"/><path class="a" d="M21.765,81h-2.51A1.255,1.255,0,0,0,18,82.255v1.883a1.255,1.255,0,0,0,1.255,1.255h2.51a1.255,1.255,0,0,0,1.255-1.255V82.255A1.255,1.255,0,0,0,21.765,81Zm-2.51,3.138V82.255h2.51v1.883Z" transform="translate(-12.979 -54.014)"/><path class="a" d="M72.958,64.8a8.158,8.158,0,1,0,8.158,8.158A8.158,8.158,0,0,0,72.958,64.8Zm0,15.062a6.9,6.9,0,1,1,6.9-6.9,6.9,6.9,0,0,1-6.9,6.9Z" transform="translate(-43.463 -43.463)"/><path class="a" d="M83.335,80.311l-4.881,4.881-2.218-2.219a.628.628,0,1,0-.887.887l2.662,2.663a.628.628,0,0,0,.887,0L84.223,81.2a.628.628,0,1,0-.887-.887Z" transform="translate(-50.213 -53.446)"/></g></svg>