<svg xmlns="http://www.w3.org/2000/svg" width="46.567" height="40.699" viewBox="0 0 46.567 40.699"><defs><style>.a{opacity:0.3;isolation:isolate;}.b{fill:#00225c;}</style></defs><g class="a"><g transform="translate(0 0)"><path class="b" d="M38.245,41.824a11.339,11.339,0,0,0-19.093,0L14.1,49.7a7.177,7.177,0,0,0,8.931,10.443l.093-.041a14.109,14.109,0,0,1,11.237.041,7.137,7.137,0,0,0,2.88.609,7.228,7.228,0,0,0,1.607-.182A7.178,7.178,0,0,0,43.294,49.7Zm2.387,14.641a4.422,4.422,0,0,1-5.17,1.181,16.843,16.843,0,0,0-13.525,0l-.061.027a4.447,4.447,0,0,1-5.475-6.5L21.45,43.3a8.609,8.609,0,0,1,14.5,0L41,51.173a4.422,4.422,0,0,1-.364,5.291Zm0,0" transform="translate(-7.105 -20.055)"/><path class="b" d="M8.358,32.659a5.506,5.506,0,0,0,3.213-3.409,7.113,7.113,0,0,0-.126-4.9,7.117,7.117,0,0,0-3.2-3.722,5.506,5.506,0,0,0-4.667-.376C.566,21.409-.818,25.137.5,28.561a6.649,6.649,0,0,0,5.98,4.446,5.213,5.213,0,0,0,1.88-.349ZM3.045,27.581c-.775-2.018-.094-4.165,1.519-4.785a2.532,2.532,0,0,1,.914-.168,3.078,3.078,0,0,1,1.469.4,4.384,4.384,0,0,1,1.952,2.3A4.382,4.382,0,0,1,9,28.345a2.822,2.822,0,0,1-1.617,1.766h0c-1.611.621-3.555-.515-4.333-2.531Zm0,0" transform="translate(0 -10.9)"/><path class="b" d="M31.868,15.588c3.772,0,6.84-3.5,6.84-7.793S35.64,0,31.868,0s-6.839,3.5-6.839,7.795S28.1,15.588,31.868,15.588Zm0-12.858c2.266,0,4.111,2.272,4.111,5.065s-1.844,5.063-4.111,5.063-4.11-2.272-4.11-5.063S29.6,2.73,31.868,2.73Zm0,0" transform="translate(-13.713 0)"/><path class="b" d="M61.292,21.939h0a5.575,5.575,0,0,0,1.761.285,7.089,7.089,0,0,0,6.454-5.079,7.643,7.643,0,0,0-.109-5.273,5.782,5.782,0,0,0-8.573-2.849,7.643,7.643,0,0,0-3.243,4.158c-1.242,3.736.422,7.665,3.709,8.758Zm-1.118-7.9a4.915,4.915,0,0,1,2.067-2.684A3.059,3.059,0,0,1,66.869,12.9a4.915,4.915,0,0,1,.049,3.388c-.767,2.308-2.9,3.683-4.764,3.065s-2.747-3-1.98-5.306Zm0,0" transform="translate(-31.324 -4.437)"/><path class="b" d="M85.9,35.447h0c-2.6-1.921-6.491-1.089-8.672,1.857s-1.838,6.91.759,8.833a5.347,5.347,0,0,0,3.212,1.037,6.915,6.915,0,0,0,5.461-2.893c2.179-2.947,1.839-6.91-.759-8.833Zm-1.435,7.209c-1.288,1.738-3.465,2.315-4.855,1.286s-1.473-3.278-.189-5.015a4.19,4.19,0,0,1,3.25-1.795,2.666,2.666,0,0,1,1.605.51c1.387,1.029,1.472,3.279.188,5.015Zm0,0" transform="translate(-41.524 -18.854)"/></g></g></svg>