<svg xmlns="http://www.w3.org/2000/svg" width="22.658" height="26.701" viewBox="0 0 22.658 26.701"><defs><style>.a{fill:#fd5d40;}</style></defs><g transform="translate(0 0)"><g transform="translate(0)"><path class="a" d="M153.508,181.963a.537.537,0,0,0,.287-.371c.18-3.089-2.37-7.207-3.289-8.582a5.744,5.744,0,0,0-2.123,1.5s-1.327.89-1.8,5.216A5.981,5.981,0,0,0,153.508,181.963Z" transform="translate(-141.586 -172.608)"/><path class="a" d="M119.946,173l-4.065-.992a1.812,1.812,0,0,0-1.269-1.384c-.84-.294-3.735-1.958-6.584-1.371,1.077,1.639,3.473,5.68,3.283,8.912a1.423,1.423,0,0,1-.918,1.194,7.515,7.515,0,0,1-2.323.37,6.74,6.74,0,0,1-5-2.2c-.033.554-.051,1.154-.055,1.8-.019,3.346-4.269,6.519-4.269,6.519l-.566,1.173a15.358,15.358,0,0,0,5.216,6.192,9.926,9.926,0,0,1,.967-3.791,8.207,8.207,0,0,1,2.741-3.2c.135-3.688,1.332-4.766,2.331-5.012a1.049,1.049,0,0,1,.885.18,1.277,1.277,0,0,1,.495.956,3.073,3.073,0,0,0,.915,1.964,9.005,9.005,0,0,1,1.285.211l.037-.348.309-3a1.2,1.2,0,0,1,1.013-1.007c1.916-.279,6.185-1.414,6.462-6.026A1.194,1.194,0,0,0,119.946,173Zm-6.334,1.071a.519.519,0,1,1,.519-.519A.519.519,0,0,1,113.612,174.069Z" transform="translate(-98.183 -169.127)"/><path class="a" d="M168.17,300.9c-.154-1.307-2-2.385-4.384-2.538a3.833,3.833,0,0,1-1.351-2.654c-.014-.254-.2-.507-.451-.446-.637.157-1.719.975-1.773,4.711,0,0-3.466,1.749-3.717,6.79a15.152,15.152,0,0,0,7.574,2.163l-.031-.722a.676.676,0,0,1,.411-.623l2.952-1.107a2.234,2.234,0,0,0,1.96-.962,7.083,7.083,0,0,1,.762-1.126.471.471,0,0,0-.022-.649C169.5,303.156,168.285,301.877,168.17,300.9Zm-1.751,1.266a.519.519,0,1,1,.52-.519A.518.518,0,0,1,166.419,302.166Z" transform="translate(-150.471 -282.226)"/></g></g></svg>